<?xml version="1.0" encoding="utf-8"?>
<!-- Generator: Adobe Illustrator 18.0.0, SVG Export Plug-In . SVG Version: 6.00 Build 0)  -->
<!DOCTYPE svg PUBLIC "-//W3C//DTD SVG 1.1//EN" "http://www.w3.org/Graphics/SVG/1.1/DTD/svg11.dtd">
<svg version="1.1" id="Layer_1" xmlns="http://www.w3.org/2000/svg" xmlns:xlink="http://www.w3.org/1999/xlink" x="0px" y="0px"
	 viewBox="0.7 0.3 62.7 35.4" enable-background="new 0.7 0.3 62.7 35.4" xml:space="preserve">
<title>british-flag</title>
<desc>Created with Sketch.</desc>
<g id="Page-1">
	<g id="british-flag" transform="translate(2.000000, 3.000000)">
		<polygon id="Shape" fill="#00247D" points="-1.3,-2.7 -1.3,32.7 61.3,32.7 61.3,-2.7 		"/>
		<path id="Shape_1_" stroke="#FFFFFF" stroke-width="6" d="M-1.3-2.7l62.7,35.4 M61.3-2.7L-1.3,32.7"/>
		<g id="Clipped">
			<g id="Shape_2_">
			</g>
			<defs>
				<filter id="Adobe_OpacityMaskFilter" filterUnits="userSpaceOnUse" x="-2.3" y="-4.4" width="64.6" height="38.9">
					<feColorMatrix  type="matrix" values="1 0 0 0 0  0 1 0 0 0  0 0 1 0 0  0 0 0 1 0"/>
				</filter>
			</defs>
			<mask maskUnits="userSpaceOnUse" x="-2.3" y="-4.4" width="64.6" height="38.9" id="mask-2">
				<g filter="url(#Adobe_OpacityMaskFilter)">
					<path id="path-1" fill="#FFFFFF" d="M30,15h31.3v17.7L30,15z M30,15v17.7H-1.3L30,15z M30,15H-1.3V-2.7L30,15z M30,15V-2.7
						h31.3L30,15z"/>
				</g>
			</mask>
			<path id="Shape_3_" mask="url(#mask-2)" stroke="#CF142B" stroke-width="4" d="M-1.3-2.7l62.7,35.4 M61.3-2.7L-1.3,32.7"/>
		</g>
		<path id="Shape_4_" stroke="#FFFFFF" stroke-width="10" d="M30-2.7v35.4 M-1.3,15h62.7"/>
		<path id="Shape_5_" stroke="#CF142B" stroke-width="6" d="M30-2.7v35.4 M-1.3,15h62.7"/>
	</g>
</g>
</svg>
