<svg width="20px" height="20px" viewBox="0 0 20 20" version="1.1" xmlns="http://www.w3.org/2000/svg" xmlns:xlink="http://www.w3.org/1999/xlink">
    <!-- Generator: Sketch 49 (51002) - http://www.bohemiancoding.com/sketch -->
    <title>Page 1</title>
    <desc>Created with Sketch.</desc>
    <defs></defs>
    <g id="Page-1" stroke="none" stroke-width="1" fill="none" fill-rule="evenodd">
        <g id="About-Us" transform="translate(-1179.000000, -38.000000)" fill="#FFFFFF">
            <path d="M1195,54 C1193.9,54 1193,54.9 1193,56 C1193,57.1 1193.9,58 1195,58 C1196.1,58 1197,57.1 1197,56 C1197,54.9 1196.1,54 1195,54 Z M1179,38 L1179,40 L1181,40 L1184.6,47.6 L1183.2,50 C1183.1,50.3 1183,50.7 1183,51 C1183,52.1 1183.9,53 1185,53 L1197,53 L1197,51 L1185.4,51 C1185.3,51 1185.2,50.9 1185.2,50.8 L1185.2,50.6999608 L1186.1,48.9999608 L1193.5,48.9999608 C1194.3,48.9999608 1194.9,48.5999608 1195.2,47.9999608 L1198.8,41.5 C1199,41.3 1199,41.2 1199,41 C1199,40.4 1198.6,40 1198,40 L1183.2,40 L1182.3,38 L1179,38 Z M1185,54 C1183.9,54 1183,54.9 1183,56 C1183,57.1 1183.9,58 1185,58 C1186.1,58 1187,57.1 1187,56 C1187,54.9 1186.1,54 1185,54 Z" id="Page-1"></path>
        </g>
    </g>
</svg>
