<svg width="16px" height="16px" viewBox="0 0 16 16" version="1.1" xmlns="http://www.w3.org/2000/svg" xmlns:xlink="http://www.w3.org/1999/xlink">
    <!-- Generator: Sketch 46.2 (44496) - http://www.bohemiancoding.com/sketch -->
    <title>Icons/Plus Copy 3</title>
    <desc>Created with Sketch.</desc>
    <defs></defs>
    <g id="Desktop" stroke="none" stroke-width="1" fill="none" fill-rule="evenodd">
        <g id="Finansines-ataskaitos" transform="translate(-1041.000000, -634.000000)" fill="white">
            <g id="Icons/Plus-Copy-3" transform="translate(1041.000000, 634.000000)">
                <path d="M15.55488,6.64447159 C15.55488,6.06526441 15.0858923,5.5953416 14.5078378,5.5953416 L9.97065461,5.5953416 L9.97065461,1.04911165 C9.97065461,0.469904465 9.50166693,-1.83429962e-05 8.92361235,-1.83429962e-05 L6.82952782,-1.83429962e-05 C6.25147324,-1.83429962e-05 5.78248556,0.469904465 5.78248556,1.04911165 L5.78248556,5.5953416 L1.24530242,5.5953416 C0.667247833,5.5953416 0.198260152,6.06526441 0.198260152,6.64447159 L0.198260152,8.74273157 C0.198260152,9.32193875 0.667247833,9.79186156 1.24530242,9.79186156 L5.78248556,9.79186156 L5.78248556,14.3380915 C5.78248556,14.9172987 6.25147324,15.3872215 6.82952782,15.3872215 L8.92361235,15.3872215 C9.50166693,15.3872215 9.97065461,14.9172987 9.97065461,14.3380915 L9.97065461,9.79186156 L14.5078378,9.79186156 C15.0858923,9.79186156 15.55488,9.32193875 15.55488,8.74273157 L15.55488,6.64447159 Z" id="Icons/Plus"></path>
            </g>
        </g>
    </g>
</svg>
