<?xml version="1.0" encoding="utf-8"?>
<!-- Svg Vector Icons : http://www.onlinewebfonts.com/icon -->
<!DOCTYPE svg PUBLIC "-//W3C//DTD SVG 1.1//EN" "http://www.w3.org/Graphics/SVG/1.1/DTD/svg11.dtd">
<svg version="1.1" xmlns="http://www.w3.org/2000/svg" xmlns:xlink="http://www.w3.org/1999/xlink" x="0px" y="0px" viewBox="0 0 1000 1000" enable-background="new 0 0 1000 1000" xml:space="preserve">
<metadata> Svg Vector Icons : http://www.onlinewebfonts.com/icon </metadata>
<g><path d="M968.4,939.8l-28.7,28.5c-28.8,28.8-75.5,28.8-104.3,0L654.9,788.1c-64.8,40.5-141.4,64-223.5,64C198.7,852.1,10,663.6,10,431.1C10,198.6,198.7,10,431.5,10c232.8,0,421.5,188.6,421.5,421.1c0,82.4-23.8,159.5-64.8,224.4l180.3,180.1C997.2,864.3,997.2,911,968.4,939.8z M431.5,126.5c-168.3,0-304.8,136.3-304.8,304.6c0,168.1,136.5,304.5,304.8,304.5c168.4,0,304.8-136.4,304.8-304.5C736.3,262.9,599.8,126.5,431.5,126.5z"/></g>
</svg>