<svg id="Layer_1" data-name="Layer 1" xmlns="http://www.w3.org/2000/svg" viewBox="0 0 360.9 65.3"><title>growtype</title><g style="isolation:isolate"><g style="isolation:isolate"><path d="M1.1,62.9H17.7c0,3.5,10.7,4.9,10.7-3.3V57.1c-2.6,3.4-5.2,4.1-9.4,4.1C6,61.2-.1,52.7,0,41.3S6.3,21.5,18.5,21.6c3.7,0,7.7,1.1,10.4,4.4l.3-3.8H45.6V59.6C45.6,84.5,1.1,83.4,1.1,62.9Zm16.4-21c0,7.3,10.7,7.3,10.7-.1S17.5,34.3,17.5,41.9Z" transform="translate(0 -13)" style="fill:#231f20"/><path d="M67.1,61.2H49.8v-39h16l.7,3.5c2.4-4.7,8.9-5,13.3-3.7l-.3,15.6c-6.6-2-12.4.9-12.4,8.4Z" transform="translate(0 -13)" style="fill:#231f20"/></g><g style="isolation:isolate"><path d="M81.7,41.8c0-12.9,9.2-20.6,21.9-20.6s22,7.7,22,20.6-9.4,20.5-22,20.5S81.7,54.5,81.7,41.8Zm16.6,0c0,3.8,2.6,5.6,5.3,5.6a5.2,5.2,0,0,0,5.4-5.6c0-3.9-2.7-5.7-5.4-5.7S98.3,37.9,98.3,41.8Z" transform="translate(0 -13)" style="fill:#231f20"/></g><g style="isolation:isolate"><path d="M156.7,49.1l-2.3,6.1-2.4,6H135.5L124.8,24V22.2H141l3,10.7,1.4,9.9,6.2-19.6h10.3L168,42.8l1.5-9.9,3-10.7h16.1V24L178,61.2H161.5l-2.4-6-2.3-6.1Z" transform="translate(0 -13)" style="fill:#231f20"/></g><g style="isolation:isolate"><path d="M194.5,47.3v-13h-4.3V22.5h4.3V14l17.2-1v9.5h6.7V34.3h-6.7v13c0,3.5,4.1,4.2,6.7,3.2l.5,10.6C207,64.6,194.5,62.1,194.5,47.3Z" transform="translate(0 -13)" style="fill:#231f20"/></g><g style="isolation:isolate"><path d="M246.2,32.3l3.9-10.1h16.6V24L246.5,75.2H229.7V73.9l5.4-13.6L220.7,24V22.2h16.5l4,10.1,2.4,10.9Z" transform="translate(0 -13)" style="fill:#231f20"/></g><g style="isolation:isolate"><path d="M268.4,22.2h16.4l.3,3.8c2.7-3.3,6.6-4.4,10.5-4.4,12.1-.1,18.3,9.3,18.4,19.7s-7.1,20.5-19,20.5c-3,0-6.9-.7-9.3-2.6v16H268.4Zm28.1,19.7c0-7.6-10.7-7.8-10.7-.1S296.5,49.2,296.5,41.9Z" transform="translate(0 -13)" style="fill:#231f20"/></g><g style="isolation:isolate"><path d="M360.5,46H333.8c.8,4.8,7.4,5.5,10.4,2h15.9c-3.3,10-11.3,14.2-21.6,14.2-12.6,0-21.4-8.2-21.4-20.7s9.7-20.3,22-20.3,21.8,6.8,21.8,20.3A21.5,21.5,0,0,1,360.5,46Zm-16.1-7.7c-1-5.3-9.7-5.2-10.6,0Z" transform="translate(0 -13)" style="fill:#231f20"/></g></g></svg>