<?xml version="1.0" standalone="no"?>
<!DOCTYPE svg PUBLIC "-//W3C//DTD SVG 1.1//EN" "http://www.w3.org/Graphics/SVG/1.1/DTD/svg11.dtd">
<svg xmlns="http://www.w3.org/2000/svg">
<metadata>Copyright (C) 2022 by original authors @ fontello.com</metadata>
<defs>
<font id="fontello" horiz-adv-x="1000" >
<font-face font-family="fontello" font-weight="400" font-stretch="normal" units-per-em="1000" ascent="850" descent="-150" />
<missing-glyph horiz-adv-x="1000" />
<glyph glyph-name="minus" unicode="&#xe800;" d="M786 439v-107q0-22-16-38t-38-15h-678q-23 0-38 15t-16 38v107q0 23 16 38t38 16h678q23 0 38-16t16-38z" horiz-adv-x="785.7" />

<glyph glyph-name="heart" unicode="&#xe801;" d="M500-79q-14 0-25 10l-348 336q-5 5-15 15t-31 37-38 54-30 67-13 77q0 123 71 192t196 70q34 0 70-12t67-33 54-38 42-38q20 20 42 38t54 38 67 33 70 12q125 0 196-70t71-192q0-123-128-251l-347-335q-10-10-25-10z" horiz-adv-x="1000" />

<glyph glyph-name="phone-circled" unicode="&#xe802;" d="M0 350q0 207 147 354t353 146 354-146 146-354-146-354-354-146-353 146-147 354z m199 162q-4-51 41-142 71-133 229-248 107-71 193-73 29 0 47 16l84 86q10 10 8 23t-16 24l-123 72q-19 12-45-6l-35-37q-6-6-18-2-11 2-24 8t-25 16-21 16-21 21-20 17q-64 61-80 119 0 4 4 10l31 31q18 18 8 43l-68 129q-12 18-28 16-9 0-19-8l-84-86q-18-16-18-45z" horiz-adv-x="1000" />

<glyph glyph-name="clock" unicode="&#xe803;" d="M460 810q190 0 325-135t135-325-135-325-325-135-325 135-135 325 135 325 325 135z m0-820q150 0 255 106t105 254q0 150-105 255t-255 105q-148 0-254-105t-106-255q0-148 106-254t254-106z m36 620l0-244 150-150-50-50-170 170 0 274 70 0z" horiz-adv-x="920" />

<glyph glyph-name="search" unicode="&#xe804;" d="M0-41q0 47 33 80l260 260q-43 82-43 176 0 154 109 265t266 110 266-110 109-266-109-265-266-109q-94 0-176 43l-260-260q-33-33-80-33-45 0-77 32t-32 77z m55 1q0-22 16-39t39-16 40 17l252 252q-45 33-78 78l-252-252q-17-17-17-40z m258 515q0-129 91-221t221-91 221 91 91 221-91 221-221 91-221-91-91-221z m93 0q0 90 65 154t154 65q16 0 16-16t-16-16q-78 0-133-54t-54-133q0-16-16-16t-16 16z" horiz-adv-x="1000" />

<glyph glyph-name="truck-filled" unicode="&#xe805;" d="M990 316v34c0 17-7 33-19 45l-186 184c-12 12-28 18-44 18h-94v36c0 26-21 47-47 47h-543c-26 0-47-21-47-47v-317h980z m-287 219c0 4 3 8 7 8h34c2 0 4-1 6-2l145-139c5-5 2-13-5-13h-180c-4 0-7 3-7 7l0 139 0 0z m287-246v-105c0-26-21-47-47-47h-51c-9 63-63 111-129 111-65 0-119-48-128-111h-257c-9 63-63 111-129 111-65 0-119-48-128-111h-64c-26 0-47 21-47 47v105l980 0 0 0z m-227-72c-54 0-98-44-98-99 0-54 44-98 98-98s99 44 99 98c0 55-44 99-99 99z m0-148c-27 0-49 22-49 49 0 27 22 49 49 49 27 0 49-22 49-49 1-27-21-49-49-49z m-514 148c-54 0-98-44-98-99 0-54 44-98 98-98 55 0 99 44 99 98 0 55-44 99-99 99z m0-148c-27 0-49 22-49 49 0 27 22 49 49 49 27 0 49-22 49-49 1-27-21-49-49-49z" horiz-adv-x="1000" />

<glyph glyph-name="search-1" unicode="&#xe806;" d="M0-41q0 47 33 80l260 260q-43 82-43 176 0 154 109 265t266 110 266-110 109-266-109-265-266-109q-94 0-176 43l-260-260q-33-33-80-33-45 0-77 32t-32 77z m55 1q0-22 16-39t39-16 40 17l252 252q-45 33-78 78l-252-252q-17-17-17-40z m258 515q0-129 91-221t221-91 221 91 91 221-91 221-221 91-221-91-91-221z m93 0q0 90 65 154t154 65q16 0 16-16t-16-16q-78 0-133-54t-54-133q0-16-16-16t-16 16z" horiz-adv-x="1000" />

<glyph glyph-name="icon" unicode="&#xe807;" d="M160 456l235-237-118-117-236 234 119 120z m354 353l234-236-117-117-236 234 119 119z m-295-295l117 117 590-590-117-117-590 590z m-178-539h500v-84h-500v84z" horiz-adv-x="955" />

<glyph glyph-name="heart-empty" unicode="&#xe808;" d="M929 517q0 46-12 80t-31 55-46 33-52 18-55 4-62-14-62-36-48-40-34-34q-10-13-27-13t-27 13q-14 15-34 34t-48 40-62 36-62 14-55-4-52-18-46-33-31-55-12-80q0-93 105-198l324-312 324 312q105 105 105 198z m71 0q0-123-128-251l-347-335q-10-10-25-10t-25 10l-348 336q-5 5-15 15t-31 37-38 54-30 67-13 77q0 123 71 192t196 70q34 0 70-12t67-33 54-38 42-38q20 20 42 38t54 38 67 33 70 12q125 0 196-70t71-192z" horiz-adv-x="1000" />

<glyph glyph-name="credit-card" unicode="&#xe809;" d="M971 550c0 55-45 100-100 100h-742c-55 0-100-45-100-100v-400c0-55 45-100 100-100h742c55 0 100 45 100 100v400z m-40-400c0-33-27-60-60-60h-742c-33 0-60 27-60 60v400c0 33 27 60 60 60h742c33 0 60-27 60-60v-400z m-582 413c-19 0-37-5-53-12-17 7-35 12-53 12-70 0-126-57-126-127 0-69 56-126 126-126 18 0 36 4 53 12 16-8 34-12 53-12 70 0 126 57 126 126 0 70-56 127-126 127z m-192-127c0 48 38 87 86 87 4 0 9-1 13-1-21-23-33-53-33-86 0-32 12-62 33-85-4 0-9-1-13-1-48 0-86 39-86 86z m192-86c-48 0-86 39-86 86 0 48 38 87 86 87 48 0 86-39 86-87 0-47-38-86-86-86z m106-134h-309c-11 0-20-9-20-20s9-20 20-20h309c11 0 20 9 20 20s-9 20-20 20z m368 99h-197c-11 0-20-9-20-20 0-11 9-20 20-20h197c11 0 20 9 20 20 0 11-9 20-20 20z m0-99h-197c-11 0-20-9-20-20s9-20 20-20h197c11 0 20 9 20 20s-9 20-20 20z" horiz-adv-x="1000" />

<glyph glyph-name="clock-2" unicode="&#xe80a;" d="M460 810q190 0 325-135t135-325-135-325-325-135-325 135-135 325 135 325 325 135z m0-820q150 0 255 106t105 254q0 150-105 255t-255 105q-148 0-254-105t-106-255q0-148 106-254t254-106z m36 620l0-244 150-150-50-50-170 170 0 274 70 0z" horiz-adv-x="920" />

<glyph glyph-name="mail" unicode="&#xe80b;" d="M929 11v428q-18-20-39-36-149-115-238-189-28-24-46-37t-48-28-57-13h-2q-26 0-57 13t-48 28-46 37q-88 74-238 189-21 16-39 36v-428q0-7 6-13t12-5h822q7 0 12 5t6 13z m0 586v14t-1 7-1 7-3 5-5 4-8 2h-822q-7 0-12-6t-6-12q0-94 83-159 107-84 223-176 4-3 20-17t25-21 25-17 28-16 24-5h2q11 0 24 5t28 16 25 17 25 21 20 17q116 92 224 176 30 24 56 65t26 73z m71 21v-607q0-37-26-63t-63-27h-822q-36 0-63 27t-26 63v607q0 37 26 63t63 26h822q37 0 63-26t26-63z" horiz-adv-x="1000" />

<glyph glyph-name="info" unicode="&#xe828;" d="M500 788c-242 0-437-196-437-438 0-242 195-438 437-438 242 0 438 196 438 438 0 242-196 438-438 438z m0-801c-201 0-363 162-363 363 0 201 162 363 363 363 201 0 363-162 363-363 0-201-162-363-363-363z m-47 535c0-13 5-24 14-33 9-9 21-14 33-14 12 0 24 5 33 14 9 9 14 20 14 33 0 12-5 24-14 33-9 9-21 14-33 14-12 0-24-5-33-14-9-9-14-21-14-33z m70-109h-46c-5 0-8-4-8-8v-266c0-4 3-8 8-8h46c5 0 8 4 8 8v266c0 4-3 8-8 8z" horiz-adv-x="1000" />

<glyph glyph-name="envelope-circled" unicode="&#xe8b0;" d="M500-150c276 0 500 224 500 500 0 276-224 500-500 500-276 0-500-224-500-500 0-276 224-500 500-500z m-228 686c14 14 33 22 53 22h350c20 0 39-8 53-22 14-15 22-35 22-56v-260c0-21-8-41-22-55-14-15-33-23-53-23h-350c-20 0-39 8-53 23-14 14-22 34-22 55v260c0 21 8 41 22 56z m241-146l162 116h-350l163-116c3-2 8-4 12-4 4 0 9 2 13 4z" horiz-adv-x="1000" />

<glyph glyph-name="linkedin" unicode="&#xe8b1;" d="M500 850c-276 0-500-224-500-500 0-276 224-500 500-500 276 0 500 224 500 500 0 276-224 500-500 500z m-122-707h-102v326h102v-326z m-52 366c-32 0-52 22-52 50 0 29 21 51 54 51 32 0 52-22 53-51 0-28-21-50-55-50z m421-366h-101v180c0 42-14 71-51 71-28 0-45-19-52-38-3-7-3-16-3-25v-188h-102v222c0 40-1 74-2 104h88l4-46h2c14 22 46 53 101 53 67 0 116-45 116-141v-192z" horiz-adv-x="1000" />

<glyph glyph-name="uniE934" unicode="&#xe934;" d="M901 369q3-4 5-9t2-9q0-42-8-81t-23-75q-17-36-38-68t-48-59q-27-27-59-48t-68-38q-37-16-76-24t-80-7q-41 0-80 7t-75 24q-37 16-68 38t-59 48q-28 27-49 59t-37 68q-16 37-24 75t-8 81q0 41 8 80t24 75 37 68 49 59 59 49 68 37 75 24 80 7q25 0 49-2t48-9 45-14 43-20q22-11 41-24t38-29 33-34 31-37l5 44q0 6 2 11t6 7q4 4 8 5t11 0q6 0 10-2t8-7q4-4 5-9t0-9l-16-121q0-4-2-8t-6-7q-4-4-8-6t-8-1h-3l-110 15q-6 0-10 2t-7 7q-4 5-5 10t0 9q0 6 2 10t7 8q5 2 9 4t9-1l63-6q-12 18-26 35t-30 33q-17 15-34 28t-36 24q-20 10-40 19t-42 14-44 9-46 3q-35 0-69-7t-67-21q-32-14-60-33t-51-43q-24-23-42-51t-33-60q-14-31-21-66t-7-69q0-36 7-70t21-66q14-32 33-60t43-51q23-24 51-43t60-32q31-15 66-22t69-7q36 0 70 7t67 22q31 13 59 32t52 43q23 23 42 51t32 60q15 32 22 66t6 70q0 5 2 9t5 9 9 5 9 1q6 0 10-1t8-5v0z m-453-44q-17-21-34-39t-35-36h79q6 0 10-1t9-5q3-4 4-9t2-9q0-6-2-10t-4-9q-4-2-9-4t-10-2h-149q-4 0-8 1t-7 4q-3 2-5 5t-4 7-2 8 2 7q1 3 4 6t4 7q13 9 25 20l26 22q12 11 23 22t22 21q9 11 17 21t15 20q6 8 9 16t4 13q0 10-5 18t-12 17q-9 7-17 11t-17 4-18-4-16-12-12-17-4-17q0-6-1-10t-6-9q-4-3-8-5t-9-2q-6 0-11 2t-8 5q-3 4-5 9t-2 10q0 19 8 36t23 33q15 16 32 23t37 7 37-7 33-23q15-15 23-33t7-36q0-17-8-36t-27-40v0z m210-124q-6 0-10 2t-7 4q-4 4-6 9t-2 12v50h-100q-4 0-7 1t-6 3q-2 2-5 4t-4 4q-1 3-2 6t1 7q0 3 1 7t2 6l125 175q2 4 5 6t7 3q4 1 8 1t8-1q4-2 7-4t5-6q3-3 4-7t2-7v-150h49q5 0 10-2t8-5q4-4 5-9t2-10q0-5-2-9t-5-8q-3-4-8-6t-10-1h-49v-50q0-6-2-10t-6-9q-3-2-7-4t-11-2v0z m-25 125v72l-52-72h52z" horiz-adv-x="1000" />

<glyph glyph-name="uniE935" unicode="&#xe935;" d="M139 679q10 11 24 16t28 6h476q5 0 10-2t8-5q4-4 5-9t1-10v-74h101q5 0 10-2t8-6q4-3 5-7t1-10v-175h26q6 0 10-2t7-5q4-4 6-8t2-11v-149q0-6-2-10t-6-9q-3-2-7-4t-10-2h-26v-175q0-6-1-10t-5-9q-3-3-8-5t-10-2h-550q-26 0-49 10t-40 27q-18 18-27 40t-9 48v500q0 17 6 30t16 24v0z m35-35q-4-4-5-8t-2-11q0-4 2-9t5-8q4-4 8-6t9-1h451v50h-451q-4 0-9-2t-8-5v0z m593-94h-576q-1 0-3 1t-3 0-4 1-1 1h-2-1-1-1q-1 1-3 2t-2 0h-1-2v-430q0-15 5-29t17-24 23-16 30-6h525v151h-100q-20 0-39 7t-32 22-22 32-8 38q0 22 8 39t22 33 32 22 39 7h100v149 0z m49-199h-149q-11 0-19-4t-16-12q-8-6-11-15t-4-20q0-10 4-18t11-17q7-7 16-11t19-4h149v101 0z m-56-32q4-4 5-9t2-10q0-5-2-9t-5-8-8-6-10-1h-25q-6 0-10 1t-8 6q-4 4-6 8t-2 9q0 6 2 10t6 9q3 3 8 5t10 2h25q5 0 10-2t8-5z" horiz-adv-x="1000" />

<glyph glyph-name="uniE936" unicode="&#xe936;" d="M161 58q-4 4-6 8t-2 10 2 9 6 8l22 23q-5 10-7 22t0 25q2 11 8 22t14 21l220 219-7 8q-4 4-6 8t-2 10 2 9 6 8l237 238q8 7 17 13t20 11q10 4 21 6t23 2q10 0 21-2t22-6q9-4 19-10t17-14q16-16 25-35t9-42-7-42-21-37l32-32q4-4 6-8t2-10-2-9-6-7l-151-151q-1-2-3-3t-4-2q-3-1-5-2t-4 0-5 0-5 2q-2 1-4 2t-4 3q-4 4-6 8t-2 10q0 5 2 9t6 8l132 132-15 15-208-207q-1-2-3-3t-4-3q-3-1-5-1t-4-1-5 1-5 1q-2 1-4 3t-4 3l-8 8-220-220q-5-6-12-10t-14-7q-7-3-14-4t-15-1q-4 0-8 0t-10 2q-4 1-8 2t-9 3l-23-23q-1-2-3-3t-3-3q-3-1-6-1t-4-1q-3 0-6 1t-4 1q-3 1-4 3l-4 3v0z m25-101q-4 4-6 9t-1 10q0 5 1 9t6 9q3 3 7 5t10 1h601q5 0 9-1t8-5 6-9 1-9q0-6-1-10t-6-9q-4-3-8-5t-9-1h-601q-5 0-10 1t-7 5z m47 214q-3-4-5-9t-2-11q0-7 2-12t5-9 10-5 11-2 11 2 8 5l20 21-40 40-20-20v0z m55 55l40-40 165 165-40 39z m395 445l-219-220 90-90 219 220q10 8 15 20t4 24q0 14-4 25t-15 21q-8 9-20 14t-24 5q-14 0-25-5t-21-14v0z" horiz-adv-x="1000" />

<glyph glyph-name="uniE937" unicode="&#xe937;" d="M193 239q18 18 40 28t48 9 48-9 40-28q19-19 28-41t9-47q0-27-9-49t-28-40q-8-8-19-15t-28-12-31-11-32-8q-17-3-32-6t-30-5-24-3-15-2h0-1 0-1q-2 0-4 1t-5 1q-2 1-4 3t-4 2q-2 2-4 5t-2 5-2 5 0 6q1 5 2 14t3 25q2 14 5 29t6 32q3 16 8 32t10 32 13 27 15 20v0z m163-88q0 15-5 29t-17 24q-11 10-24 16t-29 6-29-6-23-16q-8-7-15-22t-12-38-10-45-6-45q21 3 44 7t44 11q24 6 39 12t21 13q12 12 17 25t5 29v0z m125 50q-2 0-4 0t-5 2q-2 1-5 2t-4 2l-125 125q-3 4-5 9t-2 10q0 5 2 9t5 9l325 324q8 8 17 13t19 11q11 4 22 7t22 2q11 0 22-2t21-7q11-5 20-11t17-13 14-17 11-20 6-22 2-21q0-12-2-23t-6-21q-4-10-11-19t-14-17l-324-326q-2-1-4-2t-5-2q-2-1-4-2t-5 0v0z m163 402l-252-252 89-90 252 252z m99 72q-13 0-25-4t-20-13l-19-20 90-90 19 20q5 4 8 9t6 11q2 6 3 12t2 13q0 6-2 11t-3 12q-3 6-6 11t-8 11q-9 8-20 13t-25 4v0z" horiz-adv-x="1000" />

<glyph glyph-name="uniE965" unicode="&#xe965;" d="M158 747h486l214-215v-585h-700v800 0z m50-751h600v501h-200v200h-400v-701 0z m450 550h115l-115 116v-116z" horiz-adv-x="1000" />

<glyph glyph-name="uniE966" unicode="&#xe966;" d="M746-73h-599v699h599v-699z m-50 650h-500v-600h500v600z m100 100h-574v50h625v-726h-51v676 0z m-524-275h349v50h-349v-50 0z m0-151h349v51h-349v-51 0z m0-149h149v50h-149v-50 0z" horiz-adv-x="1000" />

<glyph glyph-name="uniE967" unicode="&#xe967;" d="M620-73h-485v800h700v-585l-215-215v0z m-435 50h400v200h199v500h-599v-700 0z m99 475h401v49h-401v-49z m0-150h401v50h-401v-50z m0-150h200v50h-200v-50z m465-26h-114v-114z" horiz-adv-x="1000" />

<glyph glyph-name="uniE977" unicode="&#xe977;" d="M488-40q-2 1-4 3t-3 3-15 15-35 38-47 54-49 64q-26 35-50 73t-45 77q-21 40-31 76t-11 70q0 35 7 67t19 59q13 28 30 52t39 43 45 34 51 24q27 11 54 16t55 5q27 0 55-5t54-16q27-10 51-25t45-34q22-20 39-43t30-51q13-28 20-60t6-66q0-33-11-70t-32-77q-21-40-45-78t-49-72-50-64-46-53q-23-25-35-38t-15-15q-1-2-3-3t-4-3-5-1-5-1-5 1-5 1v0z m-81 705q-22-7-42-20t-38-28q-17-17-32-36t-25-43-17-50-5-55q0-25 7-54t23-59q15-30 33-61t40-59q20-30 41-56t42-52q20-24 36-42t28-29q11 12 27 30t38 42q20 25 41 51t42 57 38 59 34 61q14 30 22 58t8 54q0 29-6 55t-16 50-25 43-32 36q-19 15-39 28t-41 20q-23 9-45 14t-46 4q-23 0-46-4t-45-14v0z m161-302q-14-15-32-22t-38-8-38 8-33 22-22 32-7 38 7 38 22 32 33 22 38 8 38-8 32-22 22-32 8-38-8-38-22-32v0z m-105 35q7-8 16-11t19-4q10 0 19 4t16 11q7 8 11 17t4 18-4 19-11 16q-8 8-16 11t-19 4q-11 0-19-4t-16-11q-8-8-11-16t-4-19 4-18 11-17v0z" horiz-adv-x="1000" />

<glyph glyph-name="support" unicode="&#xe982;" d="M822-21q-17-19-40-28t-48-9h-174v50h174q16 0 29 5t24 17q12 11 17 24t6 29v14q-6-3-12-6t-12-4q-7-2-13-3t-13-1h-101v300h151v25q0 31-6 60t-18 56-28 52-36 44-45 37-51 27-57 18-59 6q-31 0-61-6t-56-18-52-27-44-37-37-44-28-52-17-56-6-60v-25h150v-300h-99q-22 0-39 7t-32 22-22 32-8 39v225q0 36 7 70t22 67q13 31 32 59t42 51q24 24 52 43t59 32 66 21 71 7q36 0 70-7t66-21q32-13 60-32t51-43 42-51 33-59q14-32 21-67t6-70v-325q0-26-9-48t-28-40v0z m-613 338v-150q0-10 4-19t12-16q6-8 15-11t20-4h50v200h-101v0z m586-185q7 7 11 16t4 19v150h-101v-200h51q10 0 18 4t17 11v0z" horiz-adv-x="1000" />

<glyph glyph-name="uniE988" unicode="&#xe988;" d="M893 491q4-4 5-9t1-9-1-9-5-8-9-6-9-2h-750q-5 0-9 2t-9 6-5 8-2 9 2 9 5 9 9 6 9 1h137l141 214q4 4 8 7t9 4 10 0 9-4q4-3 7-7t3-9 0-10-3-9l-125-186h357l-124 186q-3 4-4 9t0 10 4 9 7 7q4 3 9 4t9 0q6-1 10-4t7-7l142-214h137q5 0 9-1t9-6v0z m-643-493q-5 0-9 2t-8 4-5 7-3 8l-50 351q-1 4 0 9t5 9 7 6 9 4q5 1 10-1t9-4 6-7 4-9l47-329h456l46 329q1 5 4 9t6 7q5 4 10 5t10 0q5-1 9-4t7-6 4-9 1-9l-51-351q0-4-2-8t-5-7q-4-3-8-4t-9-2h-500v0z" horiz-adv-x="1000" />

<glyph glyph-name="uniE989" unicode="&#xe989;" d="M900 508q4-4 6-8t2-9v-125q0-5-2-10t-6-8-8-5-9-2h-50v-375q0-6-2-10t-6-7q-3-4-7-6t-10-2h-600q-5 0-9 2t-9 6q-3 3-5 7t-2 10v375h-50q-5 0-9 2t-9 5-5 8-2 10v125q0 5 2 9t5 8 9 6 9 2h136l115 212q2 4 6 7t8 5 10 0 9-2q5-2 8-6t5-9q2-6 1-10t-3-9l-103-188h365l-101 188q-3 4-4 9t1 10q2 5 5 9t8 6q4 2 8 2t10 0q5-2 9-5t6-7l116-212h135q5 0 9-2t8-6z m-42-42h-700v-75h700v75z m-75-125h-550v-350h550v350z m-418-267q-4 3-5 7t-2 10v150q0 5 2 9t5 8 9 6 9 2 9-2 8-6 6-8 2-9v-150q0-6-2-10t-6-7q-3-4-8-6t-9-2-9 2-9 6z m125 0q-4 3-5 7t-2 10v150q0 5 2 9t5 8 9 6 9 2 9-2 8-6 6-8 2-9v-150q0-6-2-10t-6-7q-3-4-8-6t-9-2-9 2-9 6z m125 0q-4 3-5 7t-2 10v150q0 5 2 9t5 8 9 6 9 2 9-2 8-6 6-8 2-9v-150q0-6-2-10t-6-7q-3-4-8-6t-9-2-9 2-9 6z" horiz-adv-x="1000" />

<glyph glyph-name="uniE98A" unicode="&#xe98a;" d="M897 513v-1-1-325q0-4-1-7t-3-7-5-5-6-4l-350-175h-1q-1 0-2-1t-3 0q-1-1-2-1h-2-4t-2 1q-1 0-2 0t-2 1h-1l-401 200q-3 2-5 4t-4 6q-2 3-3 6t-1 6v327 0 1 0t1 1v1 2t0 2 1 2v0q0 1 0 1h1q0 1 0 2t2 2l2 2 1 1q1 1 1 1h0l1 1 1 1 1 1t1 0l350 175q3 2 5 2t7 1q3 0 5-1t5-2l400-199 1-2t2 0l0-1 1 0q1 0 1-1l1 0q1-1 1-2t2-1q1-1 1-2t2-2v-1 0-1q1-1 1-2t1-2v-1-2t0-1h1v0z m-750-287l349-175v269l-349 176v-270 0z m375 138l123 61-337 176-130-65 344-172v0z m-50 318l-110-54 338-175 115 58z m375-480v268l-301-150v-269l301 151v0z" horiz-adv-x="1000" />

<glyph glyph-name="uniE98C" unicode="&#xe98c;" d="M905 603q4-3 6-7t2-11v-125q0-4-2-9t-6-8q-4-3-8-5t-9-2h-50v-450q0-5-2-10t-6-8q-3-4-7-6t-10-2h-600q-5 0-9 2t-9 6-5 8-2 10v450h-50q-5 0-10 2t-8 5q-4 4-5 8t-2 9v125q0 6 2 11t5 7q4 4 8 6t10 2h139q-4 6-6 12t-4 11-3 13-1 14q0 20 7 38t22 33 32 22 39 7q30 0 53-9t42-27q18-19 32-36t23-36q10 17 23 35t32 37q18 18 42 27t53 9q21 0 38-7t32-22 22-33 8-38q0-7-1-14t-3-13-5-11-5-12h139q5 0 9-2t8-6v0z m-742-117h250v75h-250v-75z m75-475h175v425h-175v-425z m90 614q7-6 16-10t19-4h115q-6 14-17 31t-23 33q-15 18-34 27t-41 8q-10 0-19-3t-16-11q-8-7-12-16t-3-19q0-10 3-19t12-17v0z m135-64v-75h100v75h-100z m100-550v425h-100v-425h100z m25 664q-14-17-23-33t-17-31h115q10 0 19 3t16 11q7 8 11 17t4 19-4 18-11 17q-8 8-16 11t-19 3q-23 0-42-8t-33-27v0z m275-114h-250v-75h250v75z m-75-125h-175v-425h175v425 0z" horiz-adv-x="1000" />

<glyph glyph-name="uniE98E" unicode="&#xe98e;" d="M135 710q-6 0-10 2t-8 6q-4 4-6 9t-2 9 2 9 6 8q3 4 8 6t10 2h99q5 0 9-2t8-5q3-3 5-6t4-8l15-104h584q3 0 6-1t5-2q2-1 5-2t3-4q2-2 3-4t3-4q1-3 1-6v-5l-51-375q0-5-2-9t-6-7q-4-3-8-5t-8-2h-500q-5 0-9 2t-8 5-6 7-3 8l-71 478h-78v0z m154-579q15 15 32 22t38 8 39-8 32-22 22-32 7-38-7-39-22-32-32-22-39-8-38 8-32 22-22 32-7 39 7 38 22 32z m-7 454l49-324h457l42 324h-548v0z m113-489q-8 7-17 11t-19 4-18-4-17-11q-8-8-11-16t-3-19q0-11 3-20t11-15q8-8 17-11t18-4 19 4 17 11q7 7 11 15t3 20q0 10-3 19t-11 16z m461 35q14-14 21-32t8-38-8-39-21-32-33-22-39-8q-20 0-38 8t-32 22-22 32-7 39 7 38 22 32 32 22 38 8 39-8 33-22z m-37-105q8 7 12 15t3 20q0 10-3 19t-12 16q-6 7-15 11t-20 4q-10 0-18-4t-17-11q-7-8-11-16t-4-19q0-11 4-20t11-15q8-8 17-11t18-4q11 0 20 4t15 11z" horiz-adv-x="1000" />

<glyph glyph-name="uniE98F" unicode="&#xe98f;" d="M884 346q3-2 5-4t5-6 3-6 1-6v-201q0-4-2-9t-5-8q-4-4-9-6t-9-2h-102q-5-21-16-39t-27-32q-18-15-38-22t-42-7-43 7-37 22q-17 14-28 32t-15 39h-52q-5 0-10 2t-8 6-5 8-2 9v550h-325q-6 0-10 2t-7 6q-4 3-6 7t-2 11q0 5 2 9t6 8q2 3 7 5t10 2h350q5 0 9-2t8-5q4-4 6-8t2-9v-101h199q4 0 8-1t7-3 5-5 4-8l72-190 91-45v0z m-493 245q3-4 5-8t2-9q0-6-2-11t-5-7q-4-4-9-6t-9-2h-200q-5 0-9 2t-9 6q-4 3-6 7t-1 11q0 5 1 9t6 8q4 3 9 5t9 2h200q5 0 9-2t9-5z m0-125q3-4 5-8t2-9q0-6-2-11t-5-7q-4-4-9-6t-9-2h-150q-5 0-10 2t-8 6q-4 3-6 7t-2 11q0 5 2 9t6 8q4 3 8 5t10 2h150q5 0 9-2t9-5z m0-125q3-4 5-8t2-9q0-6-2-11t-5-7q-4-4-9-6t-9-2h-100q-5 0-10 2t-8 6q-4 3-5 7t-2 11q0 5 2 9t5 8q4 3 8 5t10 2h100q5 0 9-2t9-5v0z m457-193v160l-86 43q-2 1-4 2t-4 4q-2 1-3 3t-2 5l-68 183h-183v-400h27q4 21 15 39t28 33q17 14 37 21t43 7 42-7 38-21q16-14 27-33t16-39h77v0z m-158 243q4-4 6-8t1-10-1-9-6-8-8-6-9-2h-101q-5 0-9 2t-8 6q-3 4-5 8t-2 9v100q0 5 2 9t5 9q4 4 8 6t9 1q6 0 11-1t7-6q4-4 6-9t2-9v-75h75q5 0 9-2t8-5v0z m11-321q11 11 16 24t6 29-6 29-16 24-24 16-29 6-29-6-24-16-16-24-6-29 6-29 16-24 24-16 29-6 28 6 25 16z" horiz-adv-x="1000" />

<glyph glyph-name="card" unicode="&#xe990;" d="M885 637q11-11 16-24t5-29v-450q0-15-5-29t-16-24-24-16-29-6h-650q-16 0-29 6t-24 16q-12 11-17 24t-6 29v450q0 16 6 29t17 24q11 12 24 17t29 6h650q16 0 29-6t24-17z m-721-35q-4-4-6-8t-2-10v-49h700v49q0 5-1 10t-5 8q-4 4-9 6t-9 2h-650q-5 0-10-2t-8-6v0z m-8-192h700v75h-700v-75 0z m694-293q3 4 5 8t1 9v226h-700v-226q0-5 2-9t6-8 8-6 10-1h650q5 0 9 1t9 6z m-426 135q4-4 6-8t2-9q0-6-2-10t-6-8q-3-4-7-6t-11-2h-175q-4 0-9 2t-8 6q-4 3-5 8t-2 10q0 5 2 9t5 8q4 3 8 5t9 2h175q6 0 11-2t7-5z m375 0q4-4 6-8t2-9q0-6-2-10t-6-8q-3-4-7-6t-11-2h-50q-4 0-9 2t-8 6q-4 3-5 8t-2 10q0 5 2 9t5 8q4 3 8 5t9 2h50q6 0 11-2t7-5z" horiz-adv-x="1000" />

<glyph glyph-name="uniE993" unicode="&#xe993;" d="M911 415v0 0-1 0-1-1-427-2 0-1-1t0-2-1-1v-2t-1-1v-1t-1-1v-1q0-1 0-1l-2-2q0-1 0-1t-2-1v-1l-1-1-2-2q-1 0-2 0t-1-2h-1 0-1 0q-2-1-3-1t-2-1h-2-2-750q-5 0-10 2t-8 5q-4 4-6 8t-2 10v428 1 0 1 1l1 0v3t1 2q0 1 1 2t0 2l2 2t1 2q1 1 2 2t2 1q0 1 1 1h0l1 1 0 0 1 1 0 0 112 64v237q0 5 2 9t6 8q4 3 8 5t10 2h500q5 0 9-2t8-5q4-4 6-8t1-9v-237l113-64q0-1 1-1t0-1h1 0v0-1h1l1-1 1-1 2-2 2-1t0-2v-2q1 0 2-1t0-2 1-2 0-2v0z m-750-406h631l-631 360v-360 0z m75 432l-49-29 49-29v58 0z m50 268v-353l215-123 235 127v349h-450v0z m83-142q-4 4-6 8t-2 9 2 10 6 8 8 6 10 2h250q5 0 9-2t8-6 6-8 1-10-1-9-6-8-8-6-9-2h-250q-5 0-10 2t-8 6z m0-125q-4 4-6 8t-2 9 2 10 6 8 8 6 10 2h250q5 0 9-2t8-6 6-8 1-10-1-9-6-8-8-6-9-2h-250q-5 0-10 2t-8 6z m184-238l308-176v343l-90-50-218-117v0z m282 209l-49 28v-54z" horiz-adv-x="1000" />

<glyph glyph-name="uniE99F" unicode="&#xe99f;" d="M616 712q26-10 48-26t40-33 34-41 27-46q10-25 16-50t5-54v-102q0-21 4-37t12-30q8-11 16-23t17-22q8-7 15-17t14-20q6-9 10-21t3-25-5-26-14-22q-9-10-23-19t-29-17q-16-6-35-13t-41-11q-22-4-45-8t-48-6q-3-23-14-42t-28-35-39-23-44-8q-25 0-45 8t-38 23q-19 16-29 35t-13 42q-25 2-48 6t-45 8q-22 5-42 11t-35 13q-17 8-29 17t-23 19q-10 10-15 22t-4 26 3 25 10 21q7 11 14 20t16 17q8 11 17 22t16 23q7 13 10 30t4 37v99q0 28 6 54t17 52q11 24 26 46t34 42q19 18 41 33t47 26q25 12 51 17t54 6 53-6 51-17v0z m182-496q-10 11-20 25t-20 30-16 39-6 50v102q0 23-4 44t-14 41q-9 20-21 38t-28 33q-16 15-33 27t-38 21q-21 10-42 15t-44 4-44-5-42-14-39-21-32-27q-16-16-28-34t-22-39q-9-19-14-41t-5-45v-99q0-28-5-50t-15-39-21-30-19-25q-8-9-14-15t-9-13q-4-5-5-11t-2-12q0-9 13-20t37-22 66-19 97-13l1 1t1 0l1 0 0-1h1 0q12-1 24-1t23-2 25-1h27 27t26 1 24 2 23 1q57 5 98 13t66 19 39 22 12 20q0 5-2 12t-6 11q-3 6-8 13t-13 15v0z m-240-216q9 7 16 18t11 22q-9-1-18-2t-19 0h-18-18-19-18q-10 0-19 0t-17 2q2-12 9-22t18-18q10-7 21-11t25-4 24 4 22 11v0z" horiz-adv-x="1000" />

<glyph glyph-name="envelope" unicode="&#xe9a7;" d="M897 618q0-1 0-2t1-1v-1-2-1-1-550q0-5-2-9t-5-9-9-5-9-2h-750q-6 0-10 2t-7 5q-4 4-6 9t-2 9v550l0 1 1 1v2 1 1t1 2l0 0t1 2 0 1 1 2q1 0 1 1v0h0t1 1h0t1 1l0 1 1 0 1 2t1 0l1 1t0 1h2 1q0 1 1 1t1 1h1 1l1 1 1 0h2t1 1h1 1 750 1 0q1-1 2-1h1q1 0 1 0t2-1h0 2q1-1 1-1t1-1h1 1l1-1 1-1q1 0 1 0t1-2q1 0 1 0l1-1v-1 0l1-1h1v0-1l1-2t1-1 0-2l1 0v0z m-49-534v477l-335-246q-2-2-4-3t-3-1-4-1h-4-4t-4 1-4 1-4 3l-334 246v-477h700v0z m-649 500l299-218 298 218h-597v0z" horiz-adv-x="1000" />

<glyph glyph-name="uniE9AE" unicode="&#xe9ae;" d="M104 627q3 4 8 6t9 1h77q5 22 16 40t27 32q18 14 38 21t42 8q26 0 48-9t40-28q19-19 28-41t9-47q0-27-9-49t-28-40q-17-18-40-27t-48-9q-22 0-42 7t-38 21q-16 15-27 32t-16 39h-77q-5 0-9 2t-8 6-6 9-1 9 1 9 6 8z m17-317q-5 0-9 1t-8 6-6 8-1 9 1 10 6 8 8 6 9 2h353q4 21 14 39t29 32 37 22 43 6q25 0 47-9t41-27q18-18 27-40t10-49q0-25-10-47t-27-40-41-28-47-10q-24 0-43 8t-37 21q-18 14-29 32t-14 40h-353v0z m-17-268q-4 3-6 8t-1 10q0 5 1 9t6 9q3 3 8 4t9 2h77q5 22 16 40t27 32q18 14 38 22t42 7q26 0 48-9t40-28q19-19 28-41t9-47q0-26-9-48t-28-41q-17-19-40-27t-48-9q-22 0-42 7t-38 21q-16 14-27 32t-16 40h-77q-5 0-9 2t-8 5v0z m165 621q-12-11-17-24t-6-29 6-29 17-25q10-11 24-16t28-5 29 5 24 16q12 12 17 25t6 29-6 29-17 24q-11 10-24 16t-29 6-28-6-24-16z m0-550q-12-11-17-24t-6-29 6-29 17-25q10-11 24-16t28-5 29 5 24 16q12 11 17 25t6 29-6 29-17 24q-11 10-24 16t-29 5-28-5-24-16z m620 514q4-4 6-8t2-9-2-9-6-9-9-6-9-2h-349q-5 0-10 2t-8 6-6 9-2 9 2 9 6 8 8 6 10 1h349q5 0 9-1t9-6z m0-549q4-4 6-9t2-9q0-6-2-10t-6-8q-4-3-9-5t-9-2h-349q-5 0-10 2t-8 5q-4 3-6 8t-2 10q0 5 2 9t6 9q4 3 8 4t10 2h349q5 0 9-2t9-4z m-346 310q-11-12-16-25t-5-29 5-28 16-24 24-17 30-6 29 6 23 17 17 24 5 28-5 29-17 25q-10 11-23 16t-29 6-30-6-24-16v0z m346-36q4-4 6-8t2-10-2-9-6-8-9-6-9-1h-75q-5 0-9 1t-9 6q-3 4-5 8t-1 9 1 10 5 8q4 4 9 6t9 2h75q5 0 9-2t9-6z" horiz-adv-x="1000" />

<glyph glyph-name="uniE9B0" unicode="&#xe9b0;" d="M879 633l6-2t5-3q3-2 5-4t3-5q3-8 6-17t5-19q2-8 3-18t1-18q0-19-4-38t-12-35q-8-18-20-32t-24-27q-14-12-30-21t-35-15q-17-6-37-6t-40 1l-31-34 167-166q18-18 28-42t10-51-10-50-28-42q-10-10-21-17t-23-12-25-7-24-2q-13 0-25 2t-25 7q-12 5-23 12t-21 17l-156 157-172-192q-2-1-4-2t-5-2q-3-1-5-2t-4-1h-1q-2 0-5 0t-4 2q-3 1-5 2t-4 3l-150 150q-1 2-3 4t-2 5-2 5 0 5q0 2 0 5t3 4q1 2 2 5t3 4l243 220-71 70h-45q-3 0-6 1t-4 1q-3 1-5 2t-4 4l-106 105q-3 4-5 9t-2 10 2 9 5 9l106 105q4 4 9 6t10 2 9-2 8-6l106-105q2-2 3-4t2-4 2-5 0-5v-46l76-75 86 79q0 3-1 6t0 8q-1 3-1 6v6q0 18 3 35t10 33q7 16 16 30t22 26q12 12 26 21t30 16q16 7 33 11t34 3q10 0 19-1t18-3 18-5 18-7q3 0 5-2t4-5q2-2 3-5t1-5q1-4 1-7t-1-6-2-5-4-6l-69-68 40-40 68 69q3 2 6 4t5 2 6 2 6-1v0z m-171-207q31-8 58-2t50 26 36 44 11 53q0 1 0 3t-1 4v3 4l-56-57q-4-4-9-5t-9-1-10 1-8 5l-75 76q-4 3-5 8t-2 9 2 9 5 9l57 56h-4-4q-1 1-3 1h-3q-26 0-48-9t-41-28-27-40-9-48v-7-7q1-4 2-8t2-8v-6t-1-7q-1-3-3-6t-4-4l-165-151h-1v0-1-1h0-1 0-1l-242-219 114-114 315 349v0h1l55 61q3 3 6 5t5 2 7 2 6-1v0z m-282-31l15 13-81 81q-1 2-2 4t-2 4-2 4 0 5v46l-81 82-72-71 81-81h46q3 0 6-1t4-1q3-1 5-3t4-3z m221-93l-109-119 158-158q12-13 26-19t32-6q17 0 31 6t26 19q11 12 18 26t6 30-6 31-18 26l-164 164v0z" horiz-adv-x="1000" />

<glyph glyph-name="uniE9B7" unicode="&#xe9b7;" d="M512 700q42 0 81-7t76-18q36-12 68-30t59-39q27-23 48-48t37-56q16-30 23-62t7-66q0-27-5-54t-17-55q-11-26-28-51t-37-47l13-166q0-3-1-6t-2-5q-1-3-3-6t-5-4q-1-2-3-3t-4-1-4-1h-3-3-2t-2 0-3 1l-188 78q-12-2-25-4t-25-4q-14-2-27-3t-25-1q-42 0-81 7t-75 20q-37 13-68 31t-58 40q-28 24-49 50t-37 56q-17 30-25 62t-8 66 8 66 24 62q15 30 36 56t49 48q26 21 58 39t69 30q36 12 75 18t82 7v0z m269-505q20 19 34 40t26 45q11 22 15 46t5 48q0 30-6 57t-20 52q-14 25-32 47t-42 41q-25 18-52 33t-60 24q-32 11-66 16t-71 6q-37 0-72-6t-66-16q-32-9-60-24t-51-33-42-41-32-47-21-52-7-57 8-56 21-53 32-48 43-42q23-18 51-33t59-27q32-11 66-16t71-6q12 0 25 1t25 2q12 1 24 4t24 5h2 2 1 2 2 3q1 0 2-1t2 0l157-65-9 136q-1 3 0 6t1 6q1 2 3 4t3 4v0z" horiz-adv-x="1000" />

<glyph glyph-name="profile" unicode="&#xe9bd;" d="M373-55q-28 4-53 8t-44 9q-20 5-35 10t-26 9l-18 6t-6 3l-15 5v17q0 26 5 50t14 48q10 22 24 42t30 37q18 17 37 31t43 23q23 9 47 14t50 5h150q26 0 50-5t48-14q22-10 42-23t37-31q18-17 31-37t23-42q9-24 14-48t5-50v-17l-14-5q-1-1-7-3t-17-6q-11-5-26-9t-35-10q-21-5-45-9t-53-8q-28-4-60-6t-68-2-68 2-60 6v0z m-20 254q-18-8-34-18t-28-21q-14-13-25-28t-19-31q-9-17-14-35t-6-36q6-3 16-6t23-7q11-4 27-7t32-7 37-6 42-5q23-2 47-3t50-1 51 1 46 3q22 2 42 5t38 6q16 3 32 7t27 7 22 7 16 6q-2 18-6 36t-13 35q-9 17-20 31t-24 28q-14 11-29 21t-33 18q-17 7-36 10t-38 3h-150q-20 0-38-3t-35-10v0z m69 133q-19 10-35 23t-29 30q-13 16-23 34t-19 38q-7 20-11 40t-4 41 4 40 11 37q8 18 19 34t24 30q14 13 30 24t35 18q17 8 37 12t40 4 40-4 38-12q18-8 34-18t30-24q13-14 24-30t19-34q7-18 11-37t4-40-4-41-11-40q-7-20-18-38t-23-34q-14-16-30-30t-34-23-38-15-42-5-41 5-38 15v0z m-26 311q-23-21-34-48t-10-57q0-16 3-31t8-31 14-30 18-27 21-23 25-18 29-12 31-4q17 0 31 4t29 12 25 18 21 23q11 13 19 27t14 30 8 31 3 31q0 30-11 57t-33 48q-22 22-48 33t-58 11q-30 0-57-11t-48-33v0z" horiz-adv-x="1000" />

<glyph glyph-name="paper-plane" unicode="&#xe9bf;" d="M847 670q0-1 0-2l1-1v-2-1-1 0-1 0-2-2t-1-2 0-1l-226-651q-1-3-3-6t-5-5q-3-2-6-4t-6-1h-2 0-1 0q-4 0-7 0t-6 3-5 4-4 5l-147 269-268 146q-4 2-6 5t-5 5-2 7 0 8q0 3 2 6t3 7 5 4 7 3l650 226 1 0t2 1h2 2 1 0 1 0 2 1q1 0 2-1t2 0h1t0-1h1 0q1-1 2-1t2-1q1-1 2-1t2-2 1-2 2-2q0-1 0-2t2-2v0-1l0 0 1-1v0z m-118-67l-495-171 209-113 286 284v0z m-136-529l171 494-284-285z" horiz-adv-x="1000" />

<glyph glyph-name="arrow-up" unicode="&#xea32;" d="M701 267h-377l189 189 188-189v0z" horiz-adv-x="1000" />

<glyph glyph-name="arrow-down" unicode="&#xea33;" d="M508 227l-189 189h377l-188-189v0z" horiz-adv-x="1000" />

<glyph glyph-name="pencil" unicode="&#xea82;" d="M105-78v0 0h-3 3-9-5q-3 0-5 3t-4 2q-4 0-4 5t-1 9v7 6l28 228v0 0 0 0 0 0 0 0 2 2l0 2t4 3l555 563q14 14 28 19t36 5q16 0 32-7t26-17l118-118q14-13 19-28t5-30q0-18-7-34t-17-26l-554-559-2 0t-2-5h-3-2v0 0 0 0 0 0 0 0l-236-32v0z m27 60l132 18-118 119-14-137v0z m36 195l60-58 440 440-55 64-445-446v0z m159-159l446 445-59 60-445-445 58-60v0z m377 695l-54-53 160-160 53 54q4 4 7 10t3 9q0 7-3 10t-7 8l-118 122q-3 4-9 7t-8 3q-7 0-14-1t-10-9v0z" horiz-adv-x="1000" />

<glyph glyph-name="trash" unicode="&#xea83;" d="M164-109q-4 3-7 9t-3 10v681h-54q-7 0-12 3t-11 6q-3 3-4 9t-1 10q0 6 3 10t7 7q3 7 7 10t11 4h227v114q0 7 3 11t6 7q4 4 10 6t9 2h286q7 0 10-2t8-6q3-3 6-9t3-9v-114h228q6 0 10-3l8-6q3-4 6-9t3-9q0-7-3-11t-6-7q-4-4-10-7t-8-3h-60v-682q0-6-2-10t-7-7q-3-4-9-7t-8-3h-623q-7-3-14-1t-9 6v0z m618 700h-568v-655h568v655 0z m-405-150q4-3 7-9t3-10v-313q0-7-3-11t-7-7q-3-4-9-7t-9-3q-3 0-9 3t-9 7q-3 3-6 9t-3 9v313q0 7 3 12t6 7q4 4 9 6t9 3q3 0 7-3t11-6v0z m5 209h227v82h-227v-82 0z m137-209q3-3 5-9t3-10v-313q0-7-3-11t-5-7q-4-4-10-7t-9-3-9 3-10 7q-2 3-5 9t-3 9v313q0 7 3 12t5 7q4 4 10 6t9 3 9-3 10-6v0z m99 0q4 4 9 6t10 3q3 0 9-3t8-6q4-3 7-9t3-10v-313q0-7-3-11t-7-7q-3-4-8-7t-9-3q-4 0-10 3t-9 7q-3 3-6 9t-3 9v313q0 4 3 10t6 9v0z" horiz-adv-x="1000" />

<glyph glyph-name="compare" unicode="&#xeb18;" d="M1074 402l0 0t-2 1q0 2 0 2t-2 1l-201 302q-2 1-3 2t-4 2q-1 2-2 4t-2 3-2 3-5 2q-2 0-5 1t-4 0h-209q-5 16-14 27t-22 22q-13 9-28 14t-31 4q-15 0-30-4t-28-14q-13-10-22-22t-15-27h-208q-2 0-4 0t-6-1q-2-1-4-2t-2-3q-3-2-5-3t-4-4q-1-1-1-2t-1-2l-202-302v-1-2l-1-1t-2 0v-1-1-1 0q-1-1-1-3t-2-3v-2-3q0-16 5-33t14-30q10-16 23-29t28-25q17-12 36-21t41-16 43-10 45-4q24 0 46 4t43 10 41 15 34 21q17 12 30 25t22 29 15 31 5 33v3t-1 2q0 1-1 3t-1 3v0 1 1 1 0t-1 1q0 2-1 2t-1 1l-165 252h143q5-10 11-19t14-18q9-8 18-14t19-10v-646h-202q-7 0-13-2t-12-7q-4-5-6-11t-2-14q0-7 2-13t6-11q5-5 12-7t13-3h471q7 0 14 3t10 7q5 5 7 11t3 13q0 7-3 14t-7 11q-4 5-10 7t-14 2h-202v646q10 4 19 10t16 14q9 8 16 18t10 19h144l-168-249 0-1-2-1q0-1 0-1h-1v-1-2-1 0q0-1-1-3t-1-2q0-1-1-3t0-2q0-18 4-33t14-31q10-16 23-29t29-25q17-12 35-21t40-16 44-10 46-4 45 4 44 10 40 16 35 21q17 12 29 25t23 29 15 31 5 33q1 0 2 1t0 1 0 3-2 5v0z m-839-114q-26 0-49 4t-45 15q-21 11-36 23t-24 25h310q-10-14-25-25t-36-23q-20-10-44-15t-51-4z m138 134h-275l137 208 138-208v0z m165 236q-7 0-13 2t-10 7q-5 5-8 11t-2 14q0 7 2 13t8 10q4 5 10 8t13 2q8 0 14-2t11-8 7-10 2-13q0-8-2-14t-7-11-11-7-14-2z m304-28l138-208h-280l142 208v0z m0-342q-27 0-50 4t-45 15q-21 11-37 23t-23 25h309q-9-14-24-25t-36-23q-21-10-45-15t-49-4v0z" horiz-adv-x="1077.1" />

<glyph glyph-name="mail-alt" unicode="&#xf0e0;" d="M1000 454v-443q0-37-26-63t-63-27h-822q-36 0-63 27t-26 63v443q25-27 56-49 202-137 278-192 32-24 51-37t53-27 61-13h2q28 0 61 13t53 27 51 37q95 68 278 192 32 22 56 49z m0 164q0-44-27-84t-68-69q-210-146-262-181-5-4-23-17t-30-22-29-18-32-15-28-5h-2q-12 0-27 5t-32 15-30 18-30 22-23 17q-51 35-147 101t-114 80q-35 23-65 64t-31 77q0 43 23 72t66 29h822q36 0 63-26t26-63z" horiz-adv-x="1000" />
</font>
</defs>
</svg>
